<svg version="1.1" id="Layer_1" xmlns="http://www.w3.org/2000/svg" xmlns:xlink="http://www.w3.org/1999/xlink" x="0px" y="0px"
	 width="100%" viewBox="0 0 1024 1024" enable-background="new 0 0 1024 1024" xml:space="preserve">
<path fill="#000000" opacity="1.000000" stroke="none" 
	d="
M523.623779,570.453369 
	C503.455750,564.312256 484.830902,556.169373 469.854340,541.289429 
	C460.170837,531.668457 455.200653,519.604004 452.036224,506.693115 
	C447.408936,487.813873 446.803253,468.525757 446.828339,449.208405 
	C446.875519,412.884277 446.727661,376.557220 447.158386,340.237244 
	C447.426483,317.629211 450.412720,295.506470 461.667786,275.181854 
	C473.220703,254.319458 490.444275,239.918594 512.028015,230.777924 
	C541.648071,218.233932 572.748108,216.865097 604.195679,220.739090 
	C623.894836,223.165787 642.351929,229.612457 658.978271,240.699615 
	C677.014343,252.726852 689.646240,269.045563 697.168457,289.357666 
	C703.030090,305.185669 705.087097,321.617310 705.195496,338.395569 
	C705.302002,354.886078 705.917725,371.406189 705.558594,387.860748 
	C704.817627,421.811371 707.279419,455.866791 703.113037,489.703369 
	C701.446594,503.236847 698.797852,516.639282 691.745483,528.738037 
	C683.359619,543.124451 670.615356,552.365906 656.217773,559.851624 
	C639.330872,568.631592 621.203857,573.822510 602.577271,576.400635 
	C583.618530,579.024780 564.413635,579.445801 545.410828,575.496521 
	C538.240601,574.006287 531.001648,572.833679 523.623779,570.453369 
M586.445435,425.801422 
	C607.196655,424.562408 628.031067,424.484344 648.590576,420.693726 
	C655.536255,419.413147 656.328979,419.300140 656.628845,411.954224 
	C657.138855,399.456360 659.864075,387.221710 660.598267,374.736053 
	C661.261475,363.457336 663.639954,352.319092 663.973145,340.969818 
	C664.098450,336.701569 662.652161,334.904724 658.284485,333.995026 
	C631.249573,328.364197 603.919434,326.700073 576.379456,326.681915 
	C548.684631,326.663635 521.182190,328.188873 493.941223,333.587402 
	C489.052643,334.556244 487.658508,336.496124 488.022156,341.238342 
	C489.943970,366.301666 493.167114,391.214813 496.261902,416.145508 
	C496.519531,418.221039 497.226837,419.566711 499.430969,419.955383 
	C504.503693,420.849854 509.528717,422.367004 514.631409,422.679260 
	C538.220398,424.122711 561.777405,426.456482 586.445435,425.801422 
M486.739594,281.264557 
	C484.336273,285.820007 481.550781,290.221924 479.641083,294.975677 
	C477.862671,299.402588 475.482574,303.717285 475.128906,308.634583 
	C474.929077,311.412567 475.631348,313.306885 479.072815,312.416321 
	C484.541565,311.001068 490.024567,309.639618 495.511627,308.296753 
	C498.576965,307.546600 500.005035,305.618134 501.023651,302.596710 
	C507.197723,284.283142 515.927551,267.418335 529.796326,253.586578 
	C530.600708,252.784363 532.232788,252.172134 531.409668,250.433014 
	C517.796509,253.293945 498.805054,263.985535 486.739594,281.264557 
z"/>
<path fill="#000000" opacity="1.000000" stroke="none" 
	d="
M559.000000,705.003357 
	C533.344910,705.088867 508.189758,705.153687 483.034882,705.271851 
	C479.544159,705.288208 476.044312,705.449097 472.567169,705.753967 
	C467.645782,706.185547 465.726166,704.732239 465.721649,699.730103 
	C465.687561,662.081482 465.701660,624.432861 465.766510,586.784363 
	C465.774536,582.117065 468.293884,580.626465 472.210724,583.091553 
	C486.575806,592.132446 502.363068,598.020813 518.486328,602.562195 
	C547.443604,610.718445 576.922241,613.437927 606.927734,608.515503 
	C633.126953,604.217346 657.931091,596.306580 680.719849,582.482727 
	C684.354309,580.278015 686.953186,581.557007 687.204895,585.811096 
	C687.430298,589.622375 687.037598,593.465942 687.043396,597.295105 
	C687.093872,630.612915 687.163818,663.930786 687.249512,697.248596 
	C687.269836,705.144775 686.137451,706.523743 678.407043,706.155823 
	C638.784058,704.270142 599.134521,705.458130 559.000000,705.003357 
z"/>
<path fill="#000000" opacity="1.000000" stroke="none" 
	d="
M848.815430,700.095947 
	C852.902222,723.446106 855.843994,746.530640 857.018799,769.833130 
	C857.405029,777.494629 856.172791,778.521057 848.390686,778.495422 
	C828.242126,778.429077 808.091614,778.937256 787.942993,778.871765 
	C773.960510,778.826294 759.985413,777.997864 745.990906,778.540771 
	C740.417419,778.757019 738.706604,776.655090 738.816345,770.342407 
	C739.305542,742.201599 740.597229,714.054504 739.568970,685.917053 
	C738.479248,656.099060 739.632507,626.307129 739.663757,596.503662 
	C739.670654,589.851685 739.113586,583.200562 739.038086,576.546509 
	C738.980530,571.480103 741.722717,569.593872 746.074402,571.964233 
	C760.803894,579.987366 776.356628,586.533203 790.135498,596.267761 
	C808.398987,609.170593 821.413940,626.381531 831.092834,646.324463 
	C839.349915,663.337891 844.437927,681.392151 848.815430,700.095947 
z"/>
<path fill="#000000" opacity="1.000000" stroke="none" 
	d="
M413.189819,659.000000 
	C413.209961,696.801514 413.230347,734.102966 413.254333,771.404480 
	C413.258087,777.281128 412.008728,778.441101 406.311646,778.432800 
	C381.006256,778.395874 355.697510,777.860840 330.397705,778.849854 
	C326.252167,779.011902 322.122711,778.210144 317.948029,778.843811 
	C316.304443,779.093262 314.607513,778.341125 313.894897,776.535706 
	C313.252075,774.906982 314.135498,773.642944 315.143677,772.477966 
	C331.996887,753.004272 338.821503,730.088318 338.021667,704.712036 
	C337.464935,687.049255 332.311951,670.691162 322.512817,655.940430 
	C319.778992,651.825195 319.944794,648.447754 322.205933,644.003967 
	C333.183380,622.429993 348.565857,604.874451 368.890259,591.799194 
	C380.925690,584.056396 394.134399,578.412415 406.757050,571.714539 
	C410.892792,569.520020 413.211975,571.650513 413.211029,577.071594 
	C413.207520,597.220154 413.198151,617.368774 413.192169,637.517334 
	C413.190094,644.511536 413.191467,651.505798 413.189819,659.000000 
z"/>
<path fill="#000000" opacity="1.000000" stroke="none" 
	d="
M211.855942,683.004089 
	C211.129089,671.610962 212.258820,661.276489 219.958679,652.604126 
	C227.065628,644.599487 235.676712,639.945312 246.508179,639.858459 
	C253.999512,639.798340 261.496552,640.015686 268.982513,639.804871 
	C287.828491,639.274048 301.713898,648.235168 311.423462,663.367310 
	C325.839935,685.835022 327.340576,710.373230 320.874298,735.832275 
	C317.278351,749.990295 309.299652,761.050903 298.072449,770.043945 
	C289.589813,776.838745 279.674042,778.747803 269.128113,778.925232 
	C261.140106,779.059570 253.168076,778.585327 245.188919,778.501892 
	C226.501022,778.306458 212.099136,763.282410 211.956970,744.436035 
	C211.803757,724.125916 211.880814,703.814148 211.855942,683.004089 
z"/>
<path fill="#000000" opacity="1.000000" stroke="none" 
	d="
M221.422928,396.384338 
	C217.953918,401.511719 214.658630,406.321045 211.383728,411.144257 
	C210.342880,412.677185 209.377884,414.421783 207.128586,413.907867 
	C204.957932,413.411926 204.495346,411.477295 204.258163,409.650696 
	C203.121902,400.900482 202.086121,392.137299 200.980301,383.383057 
	C200.284500,377.874603 199.499786,377.374725 194.313599,379.029938 
	C181.638718,383.075226 168.979584,387.170654 156.281677,391.142181 
	C154.393555,391.732727 151.935181,393.492859 150.522949,390.715942 
	C149.222595,388.158997 151.291885,386.475159 153.013290,384.812347 
	C161.641449,376.478058 170.249680,368.122589 178.803070,359.711639 
	C182.710495,355.869324 182.578827,354.996033 178.330170,351.480286 
	C172.685410,346.809235 167.080688,342.089813 161.439224,337.414764 
	C159.816437,336.069916 158.311142,334.485535 159.250229,332.333740 
	C160.280182,329.973633 162.643036,330.664398 164.559128,330.970917 
	C173.099869,332.337158 181.639313,333.720612 190.151566,335.251587 
	C193.827087,335.912659 194.817535,334.755707 193.641907,331.263123 
	C189.298248,318.358734 186.500397,304.977112 181.620148,292.235992 
	C180.919846,290.407684 180.567612,288.289001 182.715195,287.478638 
	C185.328674,286.492432 187.053711,288.691406 188.601059,290.343323 
	C194.858490,297.023712 200.917130,303.891602 207.225098,310.522888 
	C211.878784,315.415131 216.805267,320.047821 221.424286,324.612457 
	C223.556793,324.034210 223.591400,322.602844 223.902802,321.326630 
	C225.948853,312.941071 229.165405,304.847260 230.030106,296.161194 
	C230.236130,294.091644 231.325577,292.128571 233.667664,291.985504 
	C236.516190,291.811523 237.894669,293.982422 238.329514,296.356903 
	C239.985458,305.399323 243.538895,313.874542 245.896835,322.689453 
	C247.013123,326.862549 248.567871,326.879242 251.770996,325.149628 
	C263.782684,318.663605 275.867889,312.313873 287.906464,305.877350 
	C290.071228,304.719971 292.281769,302.533203 294.601379,304.958771 
	C296.872284,307.333435 294.331512,309.147949 293.134369,311.019073 
	C286.495850,321.394897 280.000488,331.866760 273.134125,342.089508 
	C271.168640,345.015808 272.021942,346.467865 274.282196,348.238098 
	C279.134064,352.037964 283.938324,355.899780 288.710754,359.799103 
	C289.969696,360.827759 291.546326,361.923553 290.852325,363.912201 
	C290.115265,366.024353 288.153076,366.181915 286.294128,366.231812 
	C279.467072,366.414978 272.668793,366.889954 265.927368,368.032013 
	C261.804688,368.730438 258.920837,366.751984 256.435364,363.743866 
	C253.465469,360.149506 250.623672,356.408264 247.325699,353.134247 
	C239.480743,345.346283 227.519394,346.010986 220.358597,354.383118 
	C215.465576,360.103851 214.940353,368.937531 219.133652,375.363922 
	C219.678619,376.199158 220.334335,376.961823 220.933578,377.761963 
	C227.763962,386.882874 227.763687,386.883087 221.422928,396.384338 
z"/>
<path fill="#000000" opacity="1.000000" stroke="none" 
	d="
M258.276001,544.348633 
	C258.431976,535.063232 258.615417,526.235046 258.628387,517.406677 
	C258.674713,485.908417 258.574066,454.409607 258.732025,422.912079 
	C258.775024,414.340668 256.424438,407.042450 250.635727,400.557526 
	C242.762512,391.737335 235.255554,382.583649 227.763336,373.432312 
	C222.741089,367.297882 222.859680,363.151306 227.677277,358.484131 
	C231.784866,354.504822 237.594543,354.192291 241.491867,358.565582 
	C251.791855,370.123535 262.045105,381.764618 271.100586,394.334320 
	C276.276306,401.518585 278.225159,409.828247 278.189606,418.849854 
	C278.018158,462.346283 278.142944,505.843933 278.168823,549.341125 
	C278.172577,555.639038 277.004944,556.842163 270.600616,557.034119 
	C270.434052,557.039124 270.267303,557.036743 270.100677,557.040466 
	C258.170990,557.304871 257.609863,556.726868 258.276001,544.348633 
z"/>
<path fill="#000000" opacity="1.000000" stroke="none" 
	d="
M233.046997,843.151001 
	C231.304489,838.476868 229.880936,834.067871 228.097687,828.544800 
	C225.597473,835.485596 224.419724,841.706604 223.412857,847.885620 
	C222.632507,852.674438 220.416504,854.216003 215.726944,854.104065 
	C202.683594,853.792664 203.567749,855.608276 206.383224,842.253723 
	C209.401672,827.936340 212.603363,813.656433 215.476746,799.310425 
	C216.170639,795.846130 217.635757,794.654663 221.116669,794.611694 
	C232.959885,794.465698 232.883423,794.376831 236.366348,805.862793 
	C237.950470,811.086975 238.866714,816.540527 241.520889,821.946167 
	C244.712357,819.361511 246.404968,815.962341 248.545135,812.964233 
	C251.931564,808.220154 255.299408,803.454773 258.451141,798.554382 
	C260.258911,795.743652 262.425323,794.340759 265.847412,794.639709 
	C269.947662,794.997803 274.120392,794.238098 278.073547,795.074951 
	C279.471405,797.320374 278.391663,799.270081 278.007446,801.110596 
	C274.746124,816.733215 271.224182,832.302673 268.103638,847.952515 
	C267.188812,852.540466 265.303467,854.261780 260.480347,854.132263 
	C246.439453,853.755371 248.896683,854.877625 251.134796,842.159912 
	C251.870575,837.979065 252.855148,833.841980 252.894623,829.326599 
	C250.690979,832.383484 248.440048,835.407654 246.293747,838.504272 
	C242.082352,844.580444 240.802887,845.093506 233.046997,843.151001 
z"/>
<path fill="#000000" opacity="1.000000" stroke="none" 
	d="
M482.224609,823.031250 
	C480.255524,832.221802 478.233582,840.966064 476.490936,849.765625 
	C475.888214,852.809204 474.388489,854.010864 471.424500,853.993713 
	C454.813477,853.897583 457.704803,855.621948 460.373169,841.230835 
	C461.067139,837.487976 461.835938,833.758972 462.721527,829.254700 
	C458.630249,832.680298 456.341522,836.643066 453.951233,840.411377 
	C451.524536,844.237122 448.100006,844.334351 444.349915,843.996582 
	C440.448578,843.645081 440.664307,840.248962 439.854767,837.689209 
	C439.007874,835.011414 438.339264,832.277222 437.352875,828.697144 
	C434.598419,833.268921 434.530121,837.727600 433.520966,841.855469 
	C430.060303,856.011353 433.672424,853.775085 417.353363,854.023560 
	C414.211639,854.071350 413.148804,852.661743 413.781586,849.688416 
	C417.447052,832.466064 421.099609,815.240967 424.761780,798.017944 
	C424.865082,797.531982 424.876160,796.904236 425.184601,796.602783 
	C429.265442,792.612915 434.323517,795.505981 438.880096,794.746338 
	C441.562683,794.299133 442.650146,796.099365 443.278931,798.455383 
	C444.907745,804.558411 446.638824,810.634399 448.369385,816.709717 
	C448.859985,818.432068 449.489105,820.114990 450.446381,822.993774 
	C455.329590,816.055176 459.620300,810.023315 463.842743,803.944031 
	C470.753967,793.993591 474.803314,792.491516 487.696381,795.549194 
	C486.809601,804.711731 483.802521,813.526123 482.224609,823.031250 
z"/>
<path fill="#000000" opacity="1.000000" stroke="none" 
	d="
M268.994232,564.772766 
	C272.153259,564.786316 274.816772,564.781616 277.479858,564.814087 
	C285.255188,564.908752 291.140686,570.451721 291.306885,578.144287 
	C291.616058,592.450256 291.825592,606.759277 291.944672,621.068115 
	C292.009796,628.890442 290.259888,629.963074 282.623413,628.146790 
	C274.104919,626.120667 265.382874,627.444580 256.756104,627.134583 
	C254.761749,627.062866 252.761917,627.155334 250.764648,627.150696 
	C246.438202,627.140564 244.309296,624.866516 244.336548,620.636169 
	C244.429825,606.159790 244.488632,591.682007 244.756912,577.208374 
	C244.873779,570.902893 250.587631,565.283813 257.015656,564.895203 
	C260.831818,564.664490 264.670166,564.800476 268.994232,564.772766 
z"/>
<path fill="#000000" opacity="1.000000" stroke="none" 
	d="
M588.733704,853.824463 
	C585.343811,853.131958 584.869019,850.384949 583.759949,848.251648 
	C579.952881,840.928955 576.242249,833.556091 572.040588,825.310974 
	C569.040222,833.698364 567.985413,841.407959 566.467712,848.972473 
	C565.733704,852.630859 564.218201,854.211304 560.533875,854.015442 
	C557.380920,853.847900 554.212524,853.994080 551.052490,853.927185 
	C548.484558,853.872742 547.572388,852.641418 548.129639,850.026489 
	C551.799255,832.806946 555.395447,815.571777 559.004639,798.339417 
	C559.514771,795.904236 560.776550,794.449219 563.459045,794.698792 
	C563.623657,794.714111 563.795654,794.716248 563.957275,794.686584 
	C571.923096,793.225342 577.002563,795.914734 579.823730,803.988464 
	C582.025818,810.290527 585.718567,816.071655 589.326477,823.230225 
	C592.352783,815.767517 593.050659,809.160400 594.530945,802.794250 
	C596.691772,793.501526 595.577576,794.812378 604.799011,794.689636 
	C607.433228,794.654541 610.068237,794.684265 612.439636,794.684265 
	C614.082214,797.033691 613.291626,799.001648 612.896973,800.886841 
	C609.800049,815.681641 606.689758,830.473938 603.503296,845.249695 
	C601.507202,854.505798 602.973755,853.929810 592.645874,853.968445 
	C591.481934,853.972778 590.317688,853.914795 588.733704,853.824463 
z"/>
<path fill="#000000" opacity="1.000000" stroke="none" 
	d="
M540.494568,842.417725 
	C536.453491,847.855652 531.297180,851.079407 525.233948,852.871277 
	C518.237000,854.939148 511.009796,855.057678 503.924988,853.988098 
	C490.484619,851.959106 484.452118,842.220703 486.951172,827.354553 
	C487.363831,824.899719 487.966766,822.463440 488.665100,820.072144 
	C494.856812,798.870483 513.335266,788.828552 534.567139,795.202087 
	C546.908997,798.906860 549.061646,805.958374 548.865173,816.275391 
	C548.689392,825.501404 546.171509,834.374268 540.494568,842.417725 
M515.311157,810.591797 
	C508.504974,814.430237 503.492645,826.289368 505.402740,833.937500 
	C505.939697,836.087463 507.310394,837.351501 509.298706,838.125183 
	C515.661194,840.601135 523.237671,838.026489 526.712036,832.053833 
	C529.185974,827.801025 530.271423,823.063965 530.567932,818.225586 
	C530.848999,813.638367 528.740356,810.698364 523.916565,809.800964 
	C521.169739,809.289917 518.632019,809.650696 515.311157,810.591797 
z"/>
<path fill="#000000" opacity="1.000000" stroke="none" 
	d="
M320.708588,854.043518 
	C307.597565,853.835449 307.532104,853.854248 304.040405,841.708130 
	C303.243408,838.935608 302.013550,837.403809 298.942474,837.324829 
	C295.580475,837.238342 295.366669,839.631165 294.788452,841.875610 
	C294.705475,842.197815 294.588593,842.511719 294.514343,842.835632 
	C291.781830,854.749207 290.467957,855.598938 278.175995,854.002075 
	C275.376160,853.638306 274.474091,852.508911 275.068726,849.711487 
	C278.695099,832.650391 282.256744,815.575439 285.766235,798.489868 
	C286.335083,795.720581 287.759308,794.622498 290.582611,794.652832 
	C300.069275,794.754822 309.565582,794.453430 319.043335,794.762512 
	C331.113831,795.156189 337.249603,804.762939 333.947998,817.458435 
	C332.456238,823.194641 329.167542,827.747925 324.480804,831.142822 
	C321.531555,833.279175 320.980682,835.463562 322.150024,838.786194 
	C323.303192,842.062683 323.755005,845.578918 324.731537,848.926636 
	C325.704651,852.262756 324.965912,854.151917 320.708588,854.043518 
M314.419678,809.894043 
	C311.258392,808.354248 307.907288,809.068848 304.621887,809.103333 
	C302.718292,809.123352 301.495544,810.104797 301.234955,812.062683 
	C300.765381,815.590576 298.657532,818.944397 300.061310,822.654663 
	C300.194946,823.007874 300.860626,823.317017 301.311157,823.368713 
	C305.507263,823.849670 309.815735,824.022095 313.112122,820.951416 
	C316.165527,818.107056 316.768066,814.398132 314.419678,809.894043 
z"/>
<path fill="#000000" opacity="1.000000" stroke="none" 
	d="
M794.999817,794.677124 
	C802.119324,794.677124 808.738892,794.677124 815.525940,794.677124 
	C816.102783,799.202271 814.689697,802.806030 813.926270,806.452881 
	C813.401855,808.957458 811.040894,808.896057 809.041931,808.916748 
	C803.548279,808.973694 798.053650,808.933105 792.559692,808.967529 
	C786.254944,809.007019 785.736633,809.563110 785.527832,817.118958 
	C791.084167,817.118958 796.648438,817.067139 802.211304,817.133301 
	C807.890198,817.200867 808.186646,817.612183 807.222717,823.200867 
	C805.820312,831.332336 805.820312,831.334656 797.355225,831.344116 
	C793.359375,831.348572 789.363525,831.356445 785.367798,831.334290 
	C783.402161,831.323425 781.936646,831.689392 781.189270,833.957642 
	C779.670410,838.566895 780.244812,839.632202 785.072449,839.682983 
	C790.732666,839.742493 796.396240,839.808716 802.053772,839.677429 
	C805.779114,839.591064 806.776917,841.301086 805.979126,844.644470 
	C805.554749,846.422913 805.166565,848.212891 804.846924,850.012756 
	C804.366394,852.719055 802.849426,854.023499 800.056580,854.017334 
	C787.736511,853.990295 775.416199,853.986572 763.096191,854.042480 
	C759.778381,854.057556 759.150696,852.348267 759.753052,849.535217 
	C763.406555,832.474548 767.094421,815.420898 770.631226,798.335938 
	C771.241150,795.389648 772.820435,794.620972 775.520020,794.658813 
	C781.845520,794.747559 788.173096,794.680847 794.999817,794.677124 
z"/>
<path fill="#000000" opacity="1.000000" stroke="none" 
	d="
M365.333252,794.679321 
	C379.729614,794.678101 379.774139,794.670288 382.189240,808.410339 
	C384.544830,821.811707 386.734985,835.242249 389.132568,848.635925 
	C389.816711,852.457947 388.876526,854.434631 384.669983,854.028931 
	C383.351532,853.901733 382.010651,854.003906 380.680054,854.005737 
	C371.719940,854.018372 371.681244,854.027832 369.621063,845.197571 
	C369.097778,842.954529 368.152557,841.637390 365.610596,841.744629 
	C363.627167,841.828186 361.600677,841.740662 359.643066,841.422791 
	C354.323914,840.559265 350.567017,842.416443 348.594940,847.485229 
	C346.454041,852.988037 342.426392,854.799072 336.755432,854.104614 
	C333.687195,853.728943 330.499817,854.457153 327.708313,853.617432 
	C326.660309,851.741943 327.642975,850.633423 328.284180,849.552124 
	C338.376648,832.532288 348.528107,815.547424 358.590881,798.510071 
	C360.063385,796.017029 361.725983,794.233765 365.333252,794.679321 
M363.280731,818.903259 
	C361.863312,821.778564 359.464294,824.201477 358.875275,827.892334 
	C362.244843,828.959534 365.201843,828.509216 368.411072,827.724854 
	C367.865051,823.437195 367.882538,819.344849 366.272919,815.460449 
	C364.649872,815.872986 364.538544,817.455444 363.280731,818.903259 
z"/>
<path fill="#000000" opacity="1.000000" stroke="none" 
	d="
M706.330200,808.845825 
	C708.867004,823.667664 711.366211,838.060913 713.955200,852.971558 
	C708.149414,854.724182 702.557129,854.175110 697.062744,853.571533 
	C694.573792,853.298035 694.705261,850.568115 694.612183,848.653442 
	C694.366699,843.606201 691.941711,841.879089 686.848877,841.377808 
	C679.455872,840.650024 674.189819,842.365540 671.476013,849.675598 
	C670.188354,853.144165 667.526184,854.327698 663.948120,854.031067 
	C659.879700,853.693726 655.716064,854.533691 651.883789,853.502930 
	C651.027344,851.340515 652.250244,850.185852 652.968750,848.971069 
	C662.802124,832.345459 672.727539,815.774048 682.496277,799.110657 
	C684.259888,796.102356 686.204163,794.201050 689.955872,794.650574 
	C694.374512,795.180115 699.698914,792.912903 703.062561,795.696777 
	C706.444641,798.495911 704.941895,804.168823 706.330200,808.845825 
M691.516357,828.291077 
	C694.318970,823.693542 691.156616,819.765381 690.695190,814.269531 
	C687.282104,819.404358 684.315125,823.117249 682.575867,828.441467 
	C685.652710,828.441467 688.241150,828.441467 691.516357,828.291077 
z"/>
<path fill="#000000" opacity="1.000000" stroke="none" 
	d="
M856.016785,824.280457 
	C861.502319,836.025391 854.731201,849.925659 841.972961,853.096619 
	C832.640259,855.416199 823.171875,855.078430 813.767822,852.953003 
	C810.174438,852.140808 808.529114,850.352295 809.750427,846.586853 
	C810.716248,843.609253 810.605103,840.322876 812.476440,837.122681 
	C816.537781,838.147766 820.628296,839.287170 824.769836,840.193298 
	C828.379700,840.983093 832.028503,841.045166 835.619995,839.889771 
	C837.327393,839.340454 838.644531,838.443298 838.796936,836.491272 
	C838.955627,834.458191 837.620728,833.493469 835.982910,832.847290 
	C833.197205,831.748230 830.399231,830.678833 827.590149,829.640747 
	C821.489319,827.386475 816.142761,824.096069 815.918762,816.878418 
	C815.678589,809.140930 818.514771,802.419067 825.454346,798.245178 
	C833.232056,793.567261 841.844421,793.161499 850.612244,794.077515 
	C851.271790,794.146484 851.915588,794.354614 852.572876,794.459167 
	C863.559204,796.205872 863.625549,796.444580 860.588196,807.131104 
	C859.732849,810.140503 858.436157,810.931641 855.599976,809.791809 
	C850.673462,807.811829 845.492493,807.947815 840.324280,808.258118 
	C837.890076,808.404236 835.363892,809.029358 835.071716,811.857544 
	C834.799377,814.493652 837.502319,814.665100 839.251709,815.365601 
	C845.054443,817.689270 851.665039,818.426025 856.016785,824.280457 
z"/>
<path fill="#000000" opacity="1.000000" stroke="none" 
	d="
M648.095581,813.945557 
	C645.475525,826.047668 642.827942,837.722473 640.494568,849.459717 
	C639.845215,852.725830 638.363342,853.993774 635.171631,853.997131 
	C618.703796,854.014587 621.658020,854.966553 624.248352,841.390564 
	C626.023865,832.084900 627.854126,822.776794 630.117004,813.582336 
	C631.254700,808.959778 629.573608,807.808960 625.493958,808.152039 
	C624.997986,808.193787 624.495117,808.154480 623.995483,808.150940 
	C614.542664,808.084656 614.576904,808.092773 616.867493,798.507385 
	C617.435852,796.129150 618.409851,794.658264 621.173279,794.674316 
	C635.995300,794.760681 650.817810,794.741211 665.640137,794.789490 
	C666.270081,794.791565 666.898987,795.103638 667.674988,795.310364 
	C668.163208,798.960083 666.733154,802.218262 666.027039,805.565979 
	C665.614685,807.520935 664.009888,808.071045 662.210815,808.101746 
	C659.713257,808.144348 657.190308,808.375793 654.722412,808.112488 
	C650.526611,807.664734 648.463623,809.442200 648.095581,813.945557 
z"/>
<path fill="#000000" opacity="1.000000" stroke="none" 
	d="
M752.597290,844.449768 
	C745.381104,853.649963 728.660217,857.782898 718.244019,853.253967 
	C716.651917,852.561829 715.757507,851.715576 716.191711,849.875732 
	C716.877625,846.969116 717.508179,844.049438 718.168396,841.136658 
	C718.612366,839.177612 719.780945,838.337158 721.797363,838.787964 
	C723.091858,839.077332 724.380798,839.445374 725.693054,839.592773 
	C734.974854,840.635376 737.929260,838.457581 739.860840,829.293823 
	C741.879700,819.715881 744.155151,810.184448 745.864075,800.552063 
	C746.705933,795.807373 748.834106,793.994507 753.534180,794.645813 
	C757.087219,795.138123 760.794861,793.992920 764.927673,795.648438 
	C762.889709,805.389404 760.941711,815.104248 758.804077,824.777222 
	C757.342957,831.388916 756.742310,838.291870 752.597290,844.449768 
z"/>
<path fill="#000000" opacity="1.000000" stroke="none" 
	d="
M732.795776,403.712341 
	C731.187927,404.945282 729.941101,406.111572 728.473633,406.822662 
	C719.200317,411.316162 713.410645,407.471863 713.580872,397.410645 
	C713.817017,383.452515 713.684631,369.488007 713.685913,355.526215 
	C713.686523,349.101288 715.133362,347.666199 721.658264,347.763306 
	C731.386414,347.908081 735.873474,352.459869 735.901062,362.254700 
	C735.931091,372.892365 735.901611,383.530273 735.969849,394.167633 
	C735.991943,397.604614 735.418457,400.783020 732.795776,403.712341 
z"/>
<path fill="#000000" opacity="1.000000" stroke="none" 
	d="
M436.848572,406.998962 
	C431.498596,408.613770 426.588348,408.767883 422.032196,405.938507 
	C418.537872,403.768494 416.695160,400.518402 416.695770,396.348389 
	C416.697571,383.861481 416.532898,371.370361 416.806549,358.889069 
	C416.994385,350.321136 428.425568,344.338348 435.997894,348.575104 
	C438.080719,349.740479 439.080109,351.649353 438.856934,353.996185 
	C437.400879,369.307251 439.462280,384.590363 439.166779,399.890289 
	C439.119080,402.360626 439.555634,404.962616 436.848572,406.998962 
z"/>
<path fill="#000000" opacity="1.000000" stroke="none" 
	d="
M599.013306,338.774414 
	C600.740479,337.608734 602.315125,336.803223 603.996582,337.080841 
	C617.958679,339.386078 632.259338,338.668518 646.121460,341.857544 
	C652.588806,343.345367 653.507385,344.903351 652.842712,351.650299 
	C651.146790,368.863708 649.574097,386.090515 648.131165,403.326965 
	C647.549683,410.273010 646.612366,411.107544 639.512695,412.296204 
	C612.585205,416.804657 585.419739,415.717041 558.313171,416.070068 
	C555.982117,416.100433 553.408691,416.222504 552.071899,413.842346 
	C550.746338,411.482330 552.740662,409.778168 553.871887,408.020203 
	C568.092896,385.921387 582.337097,363.837463 596.591187,341.760010 
	C597.217834,340.789490 597.997253,339.917542 599.013306,338.774414 
z"/>
</svg>